<?xml version="1.0" encoding="UTF-8"?>
<svg id="Livello_1" data-name="Livello 1" xmlns="http://www.w3.org/2000/svg" viewBox="0 0 474.17 165.7">
  <path d="M27.19,164.3c.88.03,1.55-.3,2.03-1,.48-.7.59-1.44.34-2.22-.25-.78-.86-1.3-1.82-1.54-2.91-.74-4.87-1.43-5.88-2.06s-1.66-1.68-1.96-3.14c-.3-1.46-.51-4.25-.63-8.35-.03-1.22-.05-2.47-.05-3.74s.02-2.48.05-3.63c.03-1.02.07-2.03.1-3.02.03-.9.2-1.65.49-2.26.29-.61.74-1.08,1.33-1.4.59-.32,1.37-.48,2.31-.48h1.06c.95,0,1.81.08,2.6.23.79.15,1.5.41,2.13.75.63.34,1.19.78,1.65,1.32l.28.36c1.84,2.59,3.71,5.28,5.6,8.08s4.02,6.02,6.4,9.66c1.76,2.62,3.51,5.25,5.25,7.88.84,1.22,1.65,2.15,2.43,2.77.78.62,1.62,1.04,2.53,1.25.91.21,2.09.32,3.52.32h8.38c.91,0,1.62-.36,2.12-1.07.5-.71.6-1.47.31-2.26-.29-.79-1-1.3-2.12-1.53-1.72-.34-3.06-.72-4.01-1.11-.95-.39-1.85-1.01-2.71-1.85-.86-.84-1.9-2.12-3.13-3.84-.53-.74-1.37-1.89-2.51-3.44-1.65-2.21-3.33-4.49-5.02-6.84-1.69-2.35-3.81-5.42-6.36-9.19-.43-.6-.7-1.18-.8-1.72-.1-.54-.03-1.03.23-1.46s.7-.78,1.32-1.06c2.91-1.29,5.38-2.93,7.41-4.9.54-.52,1.03-1.06,1.5-1.62-.18,1.64-.28,3.32-.28,5.04,0,7.31,1.58,13.88,4.73,19.72,3.15,5.84,7.57,10.42,13.25,13.73s12.14,4.96,19.4,4.96,14.11-1.7,19.95-5.11c5.84-3.41,10.37-8.1,13.62-14.1.64-1.18,1.2-2.4,1.71-3.63-.1,1.06-.2,2.18-.31,3.37-.33,3.79-.71,6.46-1.15,8.01-.44,1.55-1.15,2.65-2.12,3.31-.97.66-2.67,1.29-5.1,1.91-1.03.26-1.68.78-1.93,1.56-.25.78-.13,1.52.35,2.21s1.15,1.02,2.02.98h18.74c1.07.07,1.86-.26,2.36-1s.6-1.52.28-2.37-.99-1.38-2.03-1.6c-2.38-.53-3.98-1.11-4.81-1.73s-1.3-1.66-1.41-3.13c-.11-1.47-.01-4.19.3-8.17.19-2.38.33-4.16.43-5.35s.25-3.01.45-5.45c.62-6.82,1.24-13.24,1.86-19.26.1-.81.42-1.39.96-1.74.54-.35,1.1-.42,1.71-.21.61.21,1.06.69,1.37,1.41,1.31,3.19,2.6,6.36,3.88,9.5,1.28,3.14,2.53,6.27,3.77,9.37,1.84,4.58,3.68,9.22,5.52,13.91,1.84,4.69,3.73,9.57,5.68,14.66.38,1,.98,1.68,1.8,2.04s1.65.36,2.48,0c.83-.36,1.46-1.04,1.88-2.04.62-1.46,1.08-2.56,1.38-3.3.3-.74.77-1.86,1.41-3.37l1.86-4.38c.41-.97,1.04-2.46,1.89-4.46,1.76-4.14,3.65-8.56,5.69-13.26,1.62-3.76,2.83-6.57,3.63-8.45.8-1.88,2.04-4.76,3.71-8.63.34-.79.87-1.31,1.56-1.56s1.34-.17,1.94.23c.6.4.94,1.1,1.05,2.08,1,9.89,1.85,19.28,2.56,28.18.31,3.91.4,6.61.27,8.1s-.62,2.55-1.47,3.17c-.85.62-2.47,1.2-4.85,1.73-1.03.24-1.71.78-2.03,1.6s-.22,1.61.3,2.34c.52.73,1.31,1.08,2.38,1.05l35.67.26c1.14.03,1.98-.31,2.53-1.03.55-.72.67-1.5.35-2.34-.32-.84-1.03-1.37-2.13-1.59-2.74-.57-4.73-1.2-5.97-1.89-1.24-.69-1.94-1.67-2.11-2.93-.17-1.26.19-3.05,1.07-5.36.64-1.6,1.27-3.2,1.89-4.78l.57-1.34c.19-.45.37-.9.54-1.37.41-1.05,1.03-1.86,1.86-2.42.83-.56,1.97-.85,3.44-.87,3.95-.03,7.45-.05,10.51-.05s6.54.02,10.43.05c.74,0,1.39.12,1.95.37s1.04.61,1.45,1.07.75,1.05,1.05,1.76c.31.72.61,1.47.9,2.24.29.77.59,1.54.9,2.31.47,1.15.92,2.31,1.37,3.46.79,2.02,1.2,3.61,1.23,4.77.03,1.16-.44,2.15-1.4,2.96-.96.81-2.6,1.55-4.92,2.22-.93.28-1.52.81-1.77,1.59-.25.78-.15,1.52.31,2.2.46.68,1.13,1,2,.97l33.46-.1c1.07.03,1.86-.31,2.37-1.03.51-.72.6-1.5.28-2.34-.32-.84-1-1.37-2.03-1.59-2.4-.53-4.04-1.12-4.95-1.74-.91-.62-1.5-1.7-1.77-3.21-.27-1.51-.43-4.2-.47-8.08-.03-4.08-.06-8.12-.08-12.11-.02-3.99-.02-7.98,0-11.96.03-4.19.06-8.38.08-12.56,0-.9.21-1.59.63-2.07s.96-.66,1.6-.54c.64.12,1.27.56,1.87,1.32,2.17,2.59,4.26,5.11,6.26,7.57,4.22,5.14,8.42,10.34,12.6,15.6,4.18,5.27,8.29,10.53,12.34,15.78s8.01,10.49,11.89,15.69c.78,1.03,1.75,1.65,2.92,1.84.94.15,1.78-.01,2.52-.47,2.27-.08,5.59-.14,9.97-.18,4.46-.03,9.44-.04,14.96-.03.64.02,1.6.03,2.9.03,4.64.07,9.27.13,13.91.18l4.65.08c1.03.02,2.61.04,4.73.08l1.91.05c1,.03,1.8-.09,2.4-.36.6-.27,1.05-.71,1.36-1.31.08-.17.14-.38.21-.57.98.45,2.11.9,3.42,1.32,1.88.61,4.01,1.11,6.4,1.5,2.39.39,4.85.58,7.38.58,5.22,0,9.72-.84,13.49-2.52.51-.23.96-.5,1.44-.75.08.33.23.64.47.95.52.67,1.21.99,2.07.96,2.27-.09,5.64-.15,10.09-.18,4.45-.03,9.44-.04,14.96-.03.64.02,1.6.03,2.9.03,4.64.07,9.27.13,13.91.18l4.65.08c1.03.02,2.61.04,4.73.08l1.91.05c1,.03,1.8-.09,2.4-.36.6-.27,1.05-.71,1.36-1.31.31-.6.5-1.37.58-2.31v-.13c.19-2.22.42-4.47.68-6.73.27-2.27.57-4.65.89-7.15.14-1.07-.12-1.86-.76-2.38-.65-.52-1.39-.65-2.22-.39s-1.43.86-1.77,1.81c-1.59,4.45-3.08,7.65-4.49,9.62-1.41,1.97-3.13,3.25-5.17,3.86-2.04.61-5.1.92-9.19.92-1.24,0-2.15,0-2.71-.03-4.96-.07-8.53-.44-10.69-1.12-2.16-.68-3.61-1.94-4.34-3.77-.73-1.83-1.13-4.85-1.2-9.03-.05-2.62-.08-4.88-.08-6.79s.02-3.73.05-5.47c.02-.14.03-.33.03-.57,0-.97.15-1.78.44-2.44.29-.66.75-1.16,1.38-1.5.63-.34,1.44-.5,2.42-.5h5.4c2.84,0,4.98.19,6.41.56s2.6,1.11,3.5,2.22c.9,1.11,1.83,2.9,2.78,5.36.38.98,1,1.6,1.87,1.86s1.64.12,2.31-.4c.67-.52.94-1.33.8-2.42-.16-1.38-.28-2.59-.38-3.65s-.16-2.03-.21-2.95c-.05-.92-.06-1.81-.06-2.69.02-1.26.07-2.57.17-3.94.1-1.37.26-3.21.48-5.52.1-1.1-.18-1.93-.85-2.47-.67-.54-1.44-.69-2.29-.43-.85.26-1.47.88-1.85,1.86-.95,2.48-1.88,4.28-2.78,5.4-.9,1.12-2.08,1.87-3.52,2.26-1.44.39-3.57.58-6.4.58h-5.4c-.98,0-1.79-.15-2.42-.44s-1.09-.72-1.38-1.28c-.29-.56-.44-1.25-.44-2.08-.09-5.74-.09-13.16,0-22.26,0-1.4.3-2.41.9-3.05.6-.64,1.6-.96,3-.96,2.45-.03,4.14-.05,5.09-.05,1.98-.02,3.92-.03,5.8-.03s3.74.02,5.55.05c3,.05,5.28.37,6.85.96,1.57.59,3.02,1.9,4.34,3.96s2.81,5.39,4.45,10.03c.34.95.95,1.57,1.82,1.86.87.29,1.65.18,2.34-.34s.97-1.34.83-2.48c-.24-1.64-.45-3.2-.62-4.68-.41-3.21-.73-6.33-.96-9.38-.09-1.19-.3-2.11-.63-2.75s-.84-1.1-1.51-1.36c-.67-.26-1.59-.37-2.74-.34l-2.25.05c-1.48.02-2.97.04-4.47.08l-5.82.1-4.81.04c-1.07,0-2.71.02-4.91.04-3,.02-6.03.02-9.1,0-2.98,0-6.14-.02-9.46-.05-3.32-.03-6.7-.09-10.11-.16-.56-.02-1.04.06-1.45.23-1.29-.39-2.73-.74-4.35-1.04-2.56-.47-5.28-.7-8.16-.7-5.19,0-9.65.81-13.39,2.42-3.62,1.56-6.39,3.77-8.35,6.6-.1-1.06-.2-2.13-.28-3.17-.09-1.19-.3-2.11-.63-2.75-.33-.64-.84-1.1-1.51-1.36s-1.59-.37-2.74-.34l-2.25.05c-1.48.02-2.97.04-4.47.08l-5.82.1-4.81.04c-1.07,0-2.71.02-4.91.04-3,.02-6.03.02-9.1,0-2.98,0-6.14-.02-9.46-.05-.38,0-.78-.01-1.17-.02-.16-.02-.31-.04-.48-.03-.2,0-.37.01-.56.02-2.61-.03-5.23-.07-7.9-.12-.63-.02-1.14.09-1.57.3h-2.24c-1.59-.03-3.75-.09-6.48-.19-1.07-.03-1.86.31-2.38,1.03-.52.72-.62,1.5-.3,2.34.32.84.99,1.37,2.03,1.59,2.4.53,4.05,1.12,4.95,1.74.9.62,1.5,1.7,1.78,3.21.28,1.51.44,4.2.48,8.08.03,3.15.06,6.57.07,10.25s.01,7.26.01,10.74c-.02,4.08-.04,8.17-.08,12.25,0,.86-.21,1.54-.63,2.03-.42.49-.95.7-1.58.62-.63-.08-1.24-.46-1.82-1.15-5.45-6.62-10.79-13.26-16.03-19.92-5.24-6.66-11.74-14.99-19.49-24.99-1.53-1.98-3.07-3.96-4.6-5.92-.45-.6-.83-1.04-1.15-1.31-.32-.27-.7-.44-1.14-.53-.44-.09-1.06-.11-1.85-.08-1.14.03-2.4.04-3.8.01-1.4-.03-2.81-.06-4.24-.09-1.81-.07-3.33-.11-4.55-.13-1.03-.03-1.79.28-2.26.96-.47.68-.56,1.4-.26,2.2.3.8.93,1.33,1.87,1.6.1.03.19.06.25.06s.14.03.24.06c1.86.53,3.25,1.11,4.15,1.73.9.62,1.53,1.47,1.89,2.55.36,1.08.55,2.64.58,4.69.02,1.15.03,2.03.04,2.61.01.58.02,1.47.04,2.66.14,11.74.11,24.17-.08,37.3-.03,3.91-.18,6.62-.45,8.12-.21,1.17-.61,2.07-1.2,2.72-.58-.49-1.1-1.1-1.57-1.85-.7-1.13-1.65-3.11-2.86-5.93-2.93-6.91-5.79-13.71-8.57-20.41-2.78-6.7-5.55-13.41-8.31-20.15-1.24-3.03-2.48-6.07-3.72-9.11-1.24-3.04-2.48-6.11-3.72-9.19-.34-.86-.9-1.46-1.65-1.8-.75-.34-1.52-.34-2.27,0-.75.34-1.33.99-1.71,1.95-1.83,4.72-3.68,9.47-5.56,14.23-1.88,4.76-3.68,9.3-5.4,13.61-2.07,5.2-4.14,10.38-6.23,15.54-2.09,5.16-4.19,10.31-6.31,15.46-1.17,2.84-2.1,4.81-2.79,5.91-.62.98-1.4,1.73-2.31,2.25-.06-.04-.15-.08-.21-.12-.96-.65-1.65-1.75-2.07-3.3-.42-1.55-.8-4.22-1.12-8.03l-.39-4.24c-.65-7.19-1.25-14.07-1.77-20.64s-.98-12.65-1.36-18.21c-.16-1.74-.09-3.1.18-4.07.27-.97.89-1.79,1.84-2.46.95-.67,2.43-1.28,4.45-1.85.98-.28,1.62-.82,1.93-1.63s.22-1.56-.23-2.25-1.19-1.02-2.21-.98c-1.02.05-2,.09-2.93.13-.93.04-1.86.06-2.75.08-.91.02-1.83.03-2.74.03s-1.84,0-2.79-.03c-.81-.03-1.5.03-2.06.21s-1.02.46-1.38.85-.66.92-.9,1.58c-1,2.53-2.01,5.07-3.02,7.6-1.02,2.57-2.04,5.12-3.06,7.66-1.02,2.54-2.05,5.08-3.09,7.61-1.22,3.03-3.88,9.5-7.96,19.39-1.52,3.65-3.04,7.32-4.58,10.99-.31.76-.73,1.28-1.27,1.55s-1.07.28-1.6,0c-.53-.28-.96-.79-1.27-1.55l-2.61-6.41c-4.22-10.37-7.67-18.94-10.35-25.7-2.68-6.76-5.28-13.62-7.79-20.6-.43-1.15-1.03-1.99-1.8-2.49-.77-.5-1.89-.74-3.37-.69-1.62.03-2.84.04-3.67.03-1,0-2.09-.02-3.27-.06-1.18-.04-2.36-.1-3.55-.17-1.24-.07-2.12.22-2.65.88-.53.66-.64,1.4-.35,2.22.29.82.87,1.38,1.73,1.65,2.14.64,3.67,1.26,4.61,1.86.94.6,1.56,1.43,1.85,2.47.29,1.04.36,2.6.21,4.67-.65,7.89-1.01,12.09-1.06,12.59-.03.37-.06.72-.09,1.09-.78-3.69-2.03-7.15-3.81-10.39-3.15-5.76-7.55-10.27-13.2-13.53-5.65-3.26-12-4.88-19.19-4.88s-14.18,1.68-20.03,5.05c-5.85,3.37-10.43,8.01-13.7,13.92-.05.08-.08.17-.13.25-.35-2.88-1.42-5.58-3.25-8.1-2.26-3.11-5.59-5.55-9.99-7.33-4.4-1.78-9.65-2.54-15.73-2.3-4.02.16-8.22.22-12.62.18-1.83,0-3.75-.02-5.76-.05-2.01-.03-4.01-.08-5.97-.13-1.07-.03-1.84.28-2.3.93-.46.65-.55,1.39-.24,2.18.31.79.94,1.34,1.89,1.65,2.21.71,3.78,1.37,4.72,1.98.94.61,1.56,1.41,1.88,2.4s.48,2.56.52,4.72c.05,9.74.08,17.7.08,23.9s-.03,12.39-.08,18.57c-.03,3.84-.19,6.52-.45,8.03-.26,1.51-.85,2.61-1.76,3.31-.91.7-2.54,1.37-4.9,2-1.02.26-1.64.78-1.86,1.56-.22.78-.08,1.52.44,2.21.52.69,1.21,1.02,2.07.98h24.46ZM42.59,118.92h0c-1.36,2.64-3.65,4.77-6.88,6.4-3.23,1.63-7.45,2.28-12.69,1.95-.78-.05-1.45-.22-2.02-.52-.57-.3-1.01-.71-1.32-1.25-.31-.54-.47-1.19-.47-1.95-.1-8.1-.1-16.15,0-24.14,0-1.29.13-2.3.4-3.02.27-.72.75-1.26,1.46-1.62.71-.36,1.74-.56,3.1-.63,3.96-.14,7.49.45,10.59,1.77,3.1,1.32,5.51,3.25,7.25,5.8s2.61,5.53,2.61,8.94c0,2.88-.68,5.64-2.04,8.27ZM111.83,145.69c-1.97,4.77-4.77,8.48-8.38,11.14-3.61,2.66-7.85,4.06-12.71,4.2-5.43.14-10.24-1.31-14.44-4.34-4.2-3.03-7.44-7.33-9.72-12.89-2.28-5.56-3.37-11.92-3.27-19.09.07-6.15,1.09-11.58,3.08-16.27s4.79-8.36,8.42-11c3.63-2.64,7.88-4.02,12.76-4.16,5.43-.14,10.23,1.29,14.41,4.29s7.4,7.24,9.67,12.72c2.27,5.48,3.35,11.74,3.24,18.77-.07,6.32-1.09,11.86-3.06,16.63ZM241.06,132.27c-.05.57-.29,1-.71,1.31-.42.31-1.02.45-1.8.45-2.91.03-5.7.05-8.35.05s-5.6-.02-8.84-.05c-.71-.02-1.29-.15-1.76-.4-.47-.25-.76-.64-.88-1.18-.12-.54,0-1.22.34-2.07v.02c1.19-2.96,2.09-5.18,2.69-6.66.6-1.48,1.52-3.74,2.74-6.79.71-1.76,1.24-3.08,1.59-3.97.35-.89.89-2.24,1.62-4.05.26-.64.65-1.08,1.18-1.32.53-.24,1.05-.25,1.58-.01.53.24.93.68,1.2,1.33.9,2.1,1.83,4.31,2.8,6.63.97,2.32,1.94,4.61,2.88,6.86.72,1.71,1.27,2.99,1.63,3.85.36.86.91,2.17,1.65,3.93.34.81.49,1.5.44,2.07ZM329.83,146.01h-.01c-.07,4.1-.23,6.89-.49,8.38s-.81,2.53-1.65,3.14c-.51.37-1.35.76-2.45,1.18-.02-1.5-.04-3.01-.05-4.51-.02-2.15-.03-4.3-.05-6.45,0-2.19,0-4.38-.03-6.57-.03-8.01,0-16.01.08-23.99,0-1.53,0-3.07.03-4.6l.05-4.6c.03-3.91.18-6.62.44-8.12s.83-2.57,1.72-3.22c.01,0,.04-.02.05-.03.9.58,1.52,1.36,1.83,2.34.32,1,.5,2.59.53,4.78.19,15.8.19,29.89,0,42.27ZM377.27,113.4c1.46,4.32,4.03,8.21,7.56,11.08.03.02.06.05.09.07,2.85,2.3,6.54,4.57,11.08,6.81,3.74,1.88,6.83,3.73,9.27,5.56,2.57,1.93,4.49,3.97,5.76,6.14.98,1.67,1.55,3.57,1.67,5.5.16,2.6-.42,4.89-1.73,6.85-1.17,1.75-2.84,3.13-5,4.12-2.16.99-4.69,1.49-7.59,1.49-3.15,0-5.91-.64-8.28-1.93-2.37-1.29-4.33-3.26-5.89-5.93-.32-.54-.61-1.11-.89-1.71-.68-1.46-1.16-3-1.55-4.56l-.76-3.12c-.05-.25-.11-.48-.15-.74-.17-1.03-.69-1.71-1.56-2.02-.87-.31-1.7-.2-2.5.32-.8.52-1.17,1.34-1.14,2.44.05,2.05.07,4,.04,5.86,0,.34-.01.65-.02.98-.86,1.92-1.68,3.45-2.48,4.56-1.4,1.96-3.13,3.25-5.17,3.86-2.04.61-5.1.92-9.19.92-1.24,0-2.15,0-2.71-.03-4.96-.07-8.53-.44-10.69-1.12s-3.61-1.94-4.34-3.77c-.73-1.83-1.13-4.85-1.2-9.03-.05-2.62-.08-4.88-.08-6.79s.02-3.73.05-5.47c.02-.14.03-.33.03-.57,0-.97.15-1.78.44-2.44.29-.66.75-1.16,1.38-1.5.63-.34,1.44-.5,2.42-.5h5.4c2.84,0,4.98.19,6.41.56s2.6,1.11,3.5,2.22c.9,1.11,1.83,2.9,2.78,5.36.38.98,1,1.6,1.87,1.86s1.64.12,2.31-.4c.67-.52.94-1.33.8-2.42-.16-1.37-.28-2.57-.38-3.62-.1-1.06-.16-2.03-.21-2.95s-.06-1.81-.06-2.69c.02-1.26.07-2.57.17-3.94.1-1.37.26-3.21.48-5.52.1-1.1-.18-1.93-.85-2.47-.67-.54-1.44-.69-2.29-.43-.85.26-1.47.88-1.85,1.86-.95,2.48-1.88,4.28-2.78,5.4s-2.08,1.87-3.52,2.26c-1.44.39-3.57.58-6.4.58h-5.4c-.98,0-1.79-.15-2.42-.44-.63-.29-1.09-.72-1.38-1.28s-.44-1.25-.44-2.08c-.09-5.74-.09-13.16,0-22.26,0-1.4.3-2.41.9-3.05.6-.64,1.6-.96,3-.96,2.45-.03,4.14-.05,5.09-.05,1.98-.02,3.92-.03,5.8-.03s3.74.02,5.55.05c3,.05,5.28.37,6.85.96,1.57.59,3.02,1.9,4.34,3.96,1.32,2.06,2.81,5.39,4.45,10.03l1.41,4.17ZM421.7,139.16c-.21-.56-.43-1.11-.7-1.64-1.19-2.39-3.24-4.76-6.15-7.11-2.91-2.35-6.94-4.81-12.07-7.38-3.67-1.83-6.68-3.66-9.02-5.49-2.34-1.83-4.11-3.82-5.3-5.95s-1.78-4.49-1.78-7.1c0-2.4.55-4.43,1.65-6.11h-.01c1.1-1.68,2.65-2.95,4.65-3.81,2-.86,4.33-1.29,6.98-1.29s5.06.54,6.92,1.62,3.4,2.8,4.64,5.16c1.24,2.36,2.28,5.54,3.13,9.54.21,1,.75,1.65,1.62,1.96.87.31,1.69.21,2.46-.3.77-.51,1.13-1.31,1.1-2.42-.05-1.95-.06-3.95-.04-6,.02-1.84.07-3.76.12-5.73.56.51.95,1.12,1.19,1.85.32,1,.5,2.59.53,4.78.16,12.97.18,24.76.08,35.42Z"/>
  <path d="M373.89,75.91c.86.03,1.55-.28,2.06-.96s.65-1.4.43-2.18c-.22-.78-.84-1.32-1.86-1.62-2.46-.74-4.11-1.42-4.95-2.03-.84-.61-1.38-1.65-1.64-3.13-.26-1.48-.42-4.27-.49-8.39-.02-1.3-.04-2.63-.05-3.97.63,1.7,1.36,3.36,2.22,4.95,3.15,5.84,7.57,10.42,13.25,13.73,5.68,3.31,12.15,4.96,19.4,4.96s14.11-1.7,19.94-5.11c5.83-3.41,10.37-8.1,13.62-14.1s4.87-12.75,4.87-20.27-1.58-13.63-4.73-19.39l-.05.02c-3.15-5.76-7.55-10.27-13.2-13.53C417.06,1.63,410.65-.01,403.46-.01s-14.18,1.68-20.03,5.05c-5.85,3.37-10.43,8.01-13.7,13.92-.96,1.73-1.76,3.52-2.43,5.38.02-2.94.05-5.93.09-8.99.03-2.19.21-3.78.53-4.78s.93-1.79,1.85-2.37c.92-.58,2.48-1.23,4.7-1.95.98-.34,1.62-.91,1.91-1.69.29-.78.19-1.5-.3-2.15s-1.27-.95-2.34-.92h-35.9c-1.14-.03-1.99.31-2.55,1.03-.56.72-.68,1.5-.35,2.34.33.84,1.04,1.37,2.15,1.59,2.79.59,4.8,1.24,6.04,1.95s1.92,1.68,2.06,2.91c.14,1.23-.23,2.96-1.11,5.2-4.15,10.98-9.48,24.43-15.98,40.35-.28.65-.67,1.1-1.19,1.33-.52.23-1.03.23-1.55,0-.52-.23-.91-.68-1.19-1.33-5.84-13.41-11.45-26.96-16.83-40.66-.88-2.24-1.27-3.98-1.18-5.22.09-1.24.63-2.2,1.6-2.87.97-.67,2.53-1.29,4.67-1.86.9-.24,1.47-.76,1.72-1.55.25-.79.16-1.53-.28-2.22s-1.1-1.02-1.98-.98l-54.01.1c-1.07-.03-1.85.27-2.34.92-.49.65-.59,1.36-.31,2.15.28.79.92,1.35,1.9,1.69,2.22.72,3.79,1.37,4.72,1.95.93.58,1.54,1.37,1.86,2.37s.5,2.59.53,4.78c.07,4.24.1,9.89.1,16.96,0,.84-.12,1.5-.36,1.96-.24.46-.65.8-1.24,1.01-.59.21-1.43.31-2.53.31-10.62.1-21.24.1-31.87,0-.98,0-1.74-.09-2.27-.27-.53-.18-.92-.51-1.16-.98-.24-.47-.36-1.15-.36-2.03,0-6.86.03-12.55.1-17.06.03-2.19.21-3.78.53-4.78s.94-1.79,1.85-2.37c.91-.58,2.48-1.23,4.7-1.95.98-.34,1.62-.91,1.91-1.69.29-.78.19-1.5-.3-2.15-.49-.65-1.27-.95-2.34-.92-3.81.1-7.62.16-11.44.16s-7.63-.05-11.44-.16c-1.07-.03-1.85.27-2.35.92-.05.06-.07.12-.11.18-2.39-.64-4.78-1.22-7.2-1.65-3.53-.63-6.99-.94-10.37-.94-8.05,0-15.09,1.68-21.12,5.05-6.03,3.37-10.67,8-13.92,13.89-.04.07-.07.13-.1.2-.36-2.85-1.43-5.53-3.24-8.02-2.26-3.11-5.59-5.55-9.99-7.33-4.4-1.78-9.65-2.54-15.73-2.3-4.02.16-8.22.22-12.62.18-1.83,0-3.75-.02-5.76-.05-2.01-.03-4.01-.08-5.97-.13-1.07-.03-1.84.28-2.3.93-.46.65-.54,1.38-.23,2.17s.94,1.34,1.89,1.65c2.21.71,3.78,1.37,4.72,1.98.94.61,1.56,1.41,1.87,2.4.31.99.48,2.56.52,4.72.05,9.74.08,17.7.08,23.9s-.03,12.39-.08,18.57c-.03,3.84-.18,6.52-.45,8.03-.21,1.21-.64,2.15-1.27,2.84-.59-.5-1.12-1.12-1.59-1.88-.7-1.13-1.65-3.11-2.86-5.93-2.93-6.91-5.79-13.71-8.57-20.41-2.78-6.7-5.55-13.41-8.31-20.15-1.24-3.03-2.48-6.07-3.72-9.11-1.24-3.04-2.48-6.11-3.72-9.19-.34-.86-.9-1.46-1.65-1.8s-1.52-.34-2.27,0-1.33.99-1.71,1.95c-1.83,4.72-3.68,9.47-5.56,14.23s-3.68,9.3-5.4,13.61c-2.07,5.2-4.14,10.38-6.23,15.54-2.09,5.16-4.19,10.31-6.31,15.46-1.17,2.84-2.1,4.81-2.79,5.91-.69,1.1-1.56,1.9-2.61,2.43-1.05.53-2.89,1.13-5.51,1.82-1.03.26-1.68.78-1.93,1.58-.25.8-.12,1.53.38,2.21s1.2,1,2.09.97h22.43c1.14.03,1.98-.31,2.53-1.03.55-.72.67-1.5.35-2.34-.32-.84-1.03-1.37-2.13-1.59-2.74-.57-4.73-1.2-5.97-1.89s-1.94-1.67-2.11-2.93c-.17-1.26.19-3.05,1.07-5.36.64-1.6,1.27-3.2,1.89-4.78l.57-1.34c.19-.45.37-.9.54-1.37.41-1.05,1.03-1.86,1.86-2.42.83-.56,1.97-.85,3.44-.87,3.95-.03,7.45-.05,10.51-.05s6.54.02,10.43.05c.74,0,1.39.12,1.95.37s1.04.61,1.45,1.07c.41.46.75,1.05,1.05,1.76.31.72.61,1.47.9,2.24.29.77.59,1.54.9,2.31.47,1.15.92,2.31,1.37,3.46.79,2.02,1.2,3.61,1.23,4.77.03,1.16-.44,2.15-1.4,2.96-.96.81-2.6,1.55-4.92,2.22-.93.28-1.52.81-1.77,1.59-.25.78-.15,1.52.31,2.2.46.68,1.13,1,2,.97h39.48c.88.03,1.56-.3,2.03-1,.47-.7.59-1.44.34-2.22-.25-.78-.86-1.3-1.82-1.54-2.91-.74-4.87-1.43-5.88-2.06s-1.66-1.68-1.96-3.14c-.3-1.46-.51-4.25-.63-8.35-.03-1.22-.05-2.47-.05-3.74s.02-2.48.05-3.63c.03-1.02.07-2.03.1-3.02.03-.9.2-1.65.49-2.26s.74-1.08,1.33-1.4c.59-.32,1.36-.48,2.31-.48h1.06c.95,0,1.81.08,2.6.23.79.15,1.49.41,2.13.75.64.34,1.19.78,1.65,1.32l.28.36c1.84,2.59,3.71,5.28,5.6,8.08,1.89,2.8,4.02,6.02,6.4,9.66,1.76,2.62,3.51,5.25,5.25,7.88.84,1.22,1.65,2.15,2.43,2.77.78.62,1.62,1.04,2.53,1.25.91.21,2.09.32,3.52.32h8.38c.91,0,1.62-.36,2.12-1.07.5-.71.6-1.47.31-2.26-.29-.79-1-1.3-2.12-1.53-1.72-.34-3.06-.72-4.01-1.11-.95-.39-1.85-1.01-2.71-1.85-.86-.84-1.9-2.12-3.13-3.84-.53-.74-1.37-1.89-2.51-3.44-1.65-2.21-3.33-4.49-5.02-6.84-1.69-2.35-3.81-5.42-6.36-9.19-.43-.6-.7-1.18-.8-1.72-.1-.54-.03-1.03.23-1.46.26-.43.7-.78,1.32-1.06,2.91-1.29,5.38-2.93,7.41-4.9.53-.52,1.03-1.06,1.49-1.61-.18,1.64-.27,3.32-.27,5.04,0,7.48,1.61,14.12,4.82,19.93,3.21,5.81,7.83,10.34,13.86,13.6,6.03,3.26,13.1,4.89,21.24,4.89,2.48,0,4.95-.16,7.39-.47s4.83-.74,7.15-1.28c1.06-.25,2.11-.52,3.17-.82.05.08.09.16.14.23.52.67,1.21.99,2.07.96h23.08c.86.03,1.55-.28,2.05-.96s.65-1.4.43-2.18c-.22-.78-.84-1.32-1.86-1.62-2.46-.74-4.12-1.42-4.95-2.03-.83-.61-1.38-1.65-1.64-3.13-.26-1.48-.42-4.27-.49-8.39-.07-3.53-.1-8.16-.1-13.88,0-1.03.12-1.81.36-2.33.24-.52.63-.87,1.18-1.07.55-.2,1.33-.3,2.37-.3,10.6-.1,21.19-.1,31.77,0,1.1,0,1.95.12,2.53.35.58.23,1,.61,1.24,1.14.24.53.36,1.26.36,2.21,0,5.93-.03,10.56-.1,13.88-.07,4.1-.23,6.89-.49,8.38s-.81,2.53-1.65,3.14c-.84.61-2.5,1.29-4.96,2.03-1.02.29-1.63.83-1.85,1.62-.22.79-.07,1.51.44,2.18.51.67,1.19.99,2.06.96h38.98c.86.03,1.55-.28,2.06-.96s.65-1.4.43-2.18c-.22-.78-.84-1.32-1.86-1.62-2.46-.74-4.11-1.42-4.95-2.03-.84-.61-1.38-1.65-1.64-3.13-.26-1.48-.42-4.27-.49-8.39-.19-12.37-.19-26.46,0-42.27.03-2.19.21-3.78.53-4.78.24-.75.64-1.38,1.22-1.89.64.56,1.23,1.29,1.77,2.23.75,1.29,1.88,3.7,3.37,7.21,3.14,7.41,5.48,12.98,7.03,16.7,2.95,7.01,5.79,13.87,8.54,20.58,2.75,6.7,5.46,13.41,8.13,20.11.34.81.9,1.37,1.65,1.68s1.51.32,2.26.03c.75-.29,1.28-.83,1.59-1.6,2-5.26,4.27-11.14,6.8-17.66,2.91-7.45,6.24-15.76,9.98-24.95,2.59-6.36,4.87-11.93,6.85-16.7,1.07-2.64,1.96-4.52,2.66-5.65.61-.98,1.41-1.73,2.34-2.32.81.56,1.38,1.3,1.68,2.23.32,1,.49,2.59.53,4.78.19,15.8.19,29.89,0,42.27-.07,4.1-.23,6.89-.49,8.38s-.81,2.53-1.65,3.14c-.84.61-2.5,1.29-4.96,2.03-1.03.29-1.66.83-1.87,1.62-.21.79-.07,1.51.45,2.18.52.67,1.21.99,2.07.96h23.09ZM81.71,43.86c-.05.57-.29,1-.71,1.31v.02c-.42.3-1.02.45-1.8.45-2.91.03-5.7.05-8.35.05s-5.6-.02-8.84-.05c-.71-.02-1.29-.15-1.76-.4s-.76-.64-.88-1.18c-.12-.54,0-1.22.34-2.07,1.19-2.96,2.09-5.18,2.69-6.66.6-1.48,1.52-3.74,2.74-6.79.71-1.76,1.24-3.08,1.59-3.97.35-.89.89-2.24,1.62-4.05.26-.64.65-1.08,1.18-1.32.53-.24,1.05-.25,1.58-.01.53.24.93.68,1.2,1.33.9,2.1,1.83,4.31,2.8,6.63.97,2.32,1.94,4.61,2.88,6.86.72,1.71,1.27,2.99,1.63,3.85.36.86.91,2.17,1.65,3.93.34.81.49,1.5.44,2.07ZM139.5,30.52h.01c-1.36,2.64-3.65,4.77-6.88,6.4s-7.45,2.28-12.69,1.95c-.78-.05-1.45-.22-2.02-.52s-1.01-.71-1.32-1.25-.47-1.19-.47-1.95c-.1-8.1-.1-16.15,0-24.14,0-1.29.13-2.3.4-3.02.27-.72.75-1.26,1.46-1.62.71-.36,1.74-.56,3.1-.63,3.96-.14,7.49.45,10.59,1.77,3.1,1.32,5.51,3.25,7.25,5.8,1.74,2.55,2.61,5.53,2.61,8.94,0,2.88-.68,5.64-2.04,8.27ZM214.53,53.3c-.73-.5-1.53-.65-2.4-.44-.9.22-1.47.84-1.73,1.86-1.07,4.14-2.67,7.54-4.8,10.2-2.13,2.66-4.72,4.62-7.77,5.87v.02c-3.05,1.25-6.54,1.86-10.47,1.82-5.84-.05-10.81-1.61-14.92-4.67s-7.18-7.26-9.23-12.59c-2.05-5.33-3.04-11.4-2.97-18.21.1-7.19,1.3-13.19,3.59-18.02,2.29-4.83,5.39-8.41,9.31-10.75,3.92-2.34,8.38-3.52,13.42-3.52,3.95,0,7.47.71,10.59,2.13,3.12,1.42,5.72,3.43,7.83,6.01,2.11,2.58,3.72,5.62,4.82,9.1.33,1.02.94,1.63,1.85,1.85.91.22,1.71.03,2.43-.57.19-.16.35-.34.47-.53.05,5.36.08,10.36.08,14.95,0,5.22-.04,10.37-.1,15.49ZM280.12,57.6c-.07,4.1-.23,6.89-.49,8.38s-.81,2.53-1.65,3.14c-.2.14-.45.29-.73.44-.28-.15-.53-.3-.72-.44h-.01c-.84-.6-1.38-1.64-1.64-3.12-.26-1.48-.42-4.27-.49-8.39-.1-6.51-.16-13.09-.16-19.74s.05-14.12.16-22.43c.03-2.19.21-3.78.53-4.78s.94-1.79,1.85-2.37c.16-.1.37-.21.57-.32.13.07.28.14.39.21.92.58,1.54,1.37,1.86,2.37.32,1,.49,2.59.53,4.78.19,15.8.19,29.89,0,42.27ZM425.41,57.3h0c-1.97,4.76-4.77,8.47-8.38,11.13-3.61,2.66-7.84,4.06-12.7,4.2-5.43.14-10.24-1.31-14.44-4.34-4.2-3.03-7.44-7.33-9.72-12.89-2.28-5.56-3.37-11.92-3.27-19.09.07-6.15,1.09-11.58,3.08-16.27,1.98-4.7,4.79-8.36,8.41-11s7.88-4.02,12.76-4.16c5.43-.14,10.23,1.29,14.41,4.29s7.4,7.24,9.67,12.72c2.27,5.48,3.35,11.74,3.25,18.77-.07,6.32-1.09,11.87-3.06,16.64Z"/>
</svg>